<?xml version="1.0" standalone="no"?>
<!DOCTYPE svg PUBLIC "-//W3C//DTD SVG 20010904//EN"
 "http://www.w3.org/TR/2001/REC-SVG-20010904/DTD/svg10.dtd">
<svg version="1.0" xmlns="http://www.w3.org/2000/svg"
 width="480.000000pt" height="270.000000pt" viewBox="0 0 480.000000 270.000000"
 preserveAspectRatio="xMidYMid meet">

<g transform="translate(0.000000,270.000000) scale(0.100000,-0.100000)"
fill="#000000" stroke="none">
<path d="M1803 1865 c-10 -10 -9 -14 3 -19 8 -3 13 -2 10 3 -3 5 1 12 10 15
22 8 24 8 22 -5 -5 -19 16 -20 37 -3 11 8 15 13 8 10 -6 -4 -14 -3 -17 2 -8
13 -60 12 -73 -3z"/>
<path d="M1780 1830 c0 -5 5 -10 10 -10 6 0 10 5 10 10 0 6 -4 10 -10 10 -5 0
-10 -4 -10 -10z"/>
<path d="M1985 1770 c-3 -5 -1 -10 4 -10 6 0 11 5 11 10 0 6 -2 10 -4 10 -3 0
-8 -4 -11 -10z"/>
<path d="M2926 1761 c-3 -4 3 -16 13 -25 15 -14 18 -14 18 -1 0 8 -7 15 -14
15 -8 0 -11 5 -8 10 3 6 4 10 1 10 -3 0 -7 -4 -10 -9z"/>
<path d="M3094 1756 c-5 -14 -9 -15 -15 -4 -13 20 -12 -8 1 -32 7 -12 17 -16
31 -13 17 5 20 3 14 -7 -5 -9 -4 -11 3 -6 9 5 8 16 -4 39 -22 42 -22 43 -30
23z"/>
<path d="M1834 1617 c-54 -81 -121 -191 -121 -197 0 -3 -10 -25 -22 -49 -30
-58 -73 -191 -67 -206 2 -7 0 -32 -6 -56 -16 -68 -16 -119 -1 -176 13 -49 22
-59 48 -53 5 1 7 -2 3 -5 -4 -4 6 -27 23 -51 16 -24 26 -44 22 -44 -12 0 -10
-150 3 -158 18 -12 64 -86 64 -102 0 -11 -5 -10 -18 6 -39 46 -90 75 -127 71
-19 -3 -38 0 -42 6 -4 6 -10 3 -14 -9 -6 -15 -8 -11 -9 16 l-2 35 -9 -35 c-10
-45 -3 -70 21 -70 14 0 18 5 14 18 -5 16 -5 16 6 0 6 -10 16 -18 23 -18 11 0
85 -53 118 -85 14 -14 22 -12 75 16 32 17 67 38 77 47 9 8 28 16 40 18 13 1
39 12 58 23 19 12 44 21 55 21 12 0 35 16 53 37 30 35 31 38 15 50 -10 7 -14
13 -8 13 5 0 -18 13 -51 29 -59 28 -116 47 -165 55 -43 7 -55 15 -68 49 -8 17
-24 57 -37 87 -32 74 -36 93 -40 191 -3 46 -6 121 -9 166 -4 91 8 123 49 123
19 0 25 7 31 43 5 23 8 50 6 60 -1 9 3 17 8 17 6 0 10 8 10 19 0 10 7 31 14
47 8 15 12 32 9 37 -3 5 -1 12 4 16 12 8 26 61 16 61 -5 0 -27 -28 -49 -63z"/>
<path d="M3130 1671 c0 -4 10 -19 23 -32 12 -14 22 -31 22 -38 0 -8 8 -15 18
-17 9 -1 17 4 17 12 0 8 -4 14 -10 14 -5 0 -9 3 -8 8 3 8 -46 62 -56 62 -3 0
-6 -4 -6 -9z"/>
<path d="M2076 1643 c-6 -14 -5 -15 5 -6 7 7 10 15 7 18 -3 3 -9 -2 -12 -12z"/>
<path d="M2743 1640 c-10 -11 -26 -20 -36 -20 -10 0 -15 -4 -12 -10 3 -5 17
-10 30 -10 13 0 27 5 30 10 14 23 35 6 69 -55 38 -68 56 -87 56 -60 0 38 -86
165 -112 165 -5 0 -16 -9 -25 -20z"/>
<path d="M2360 1619 c0 -11 -4 -17 -10 -14 -5 3 -10 2 -10 -3 0 -5 14 -9 30
-9 32 0 40 14 15 23 -8 4 -12 10 -9 15 3 5 0 9 -5 9 -6 0 -11 -9 -11 -21z"/>
<path d="M2330 1568 c0 -6 -10 -23 -22 -37 l-23 -24 27 19 c27 19 44 54 27 54
-5 0 -9 -5 -9 -12z"/>
<path d="M2416 1541 c18 -27 31 -38 41 -34 14 5 13 9 -5 24 -12 9 -22 22 -22
27 0 8 -22 22 -36 22 -2 0 7 -18 22 -39z"/>
<path d="M2131 1506 c-14 -14 -22 -29 -18 -32 3 -3 -12 -22 -34 -42 -21 -20
-39 -44 -39 -54 0 -12 12 -5 43 25 23 23 53 49 66 58 20 13 23 19 15 43 l-9
27 -24 -25z"/>
<path d="M2520 1428 c0 -18 57 -126 75 -143 12 -12 20 -26 18 -31 -2 -6 4 -17
14 -25 15 -12 16 -12 8 1 -5 8 -10 20 -10 25 -2 21 -46 103 -75 140 -16 21
-30 35 -30 33z"/>
<path d="M2003 1325 c-3 -9 -3 -18 -1 -21 3 -3 8 4 11 16 6 23 -1 27 -10 5z"/>
<path d="M3067 1317 c-3 -8 -2 -20 3 -26 5 -9 8 -4 8 13 0 29 -3 32 -11 13z"/>
<path d="M2197 1271 c-3 -12 -1 -19 4 -15 5 3 9 1 9 -5 0 -11 39 -35 45 -29 2
2 -9 19 -24 37 -26 31 -29 32 -34 12z"/>
<path d="M2826 1248 c3 -4 9 -8 15 -8 5 0 9 4 9 8 0 5 -7 9 -15 9 -8 0 -12 -4
-9 -9z"/>
<path d="M2175 1120 c8 -12 -82 -17 -133 -6 -53 10 -81 -7 -39 -23 15 -6 27
-15 27 -21 0 -5 13 -10 28 -10 15 0 33 -5 38 -10 7 -7 33 -3 82 14 39 13 74
21 77 17 4 -3 5 5 3 19 -3 22 -8 25 -46 27 -23 1 -40 -3 -37 -7z"/>
<path d="M2641 1123 c-1 -7 -10 -13 -20 -13 -33 0 -32 -15 2 -32 55 -28 66
-28 94 -4 l27 23 -23 12 c-12 7 -29 10 -37 7 -8 -3 -14 0 -14 7 0 8 -3 8 -9
-2 -7 -11 -9 -11 -14 0 -4 10 -6 10 -6 2z"/>
<path d="M3050 1089 c0 -5 -4 -7 -10 -4 -5 3 -20 -10 -32 -29 -13 -19 -32 -40
-43 -46 -11 -6 -36 -32 -55 -58 -19 -26 -56 -69 -82 -95 -48 -49 -84 -124 -93
-193 -4 -35 11 -84 27 -84 4 0 8 -6 8 -13 0 -16 37 -39 45 -27 3 5 1 11 -5 15
-12 8 -13 75 -1 107 5 13 25 41 45 63 21 22 49 57 63 78 14 20 29 37 34 37 13
0 92 169 93 199 1 16 4 27 9 24 4 -2 7 5 7 16 0 12 -2 21 -5 21 -3 0 -5 -5 -5
-11z"/>
<path d="M2773 1075 c-18 -8 -33 -17 -33 -20 0 -3 9 -1 20 5 11 6 24 9 28 6 4
-2 16 2 27 10 25 19 1 18 -42 -1z"/>
<path d="M1778 1045 c-5 -41 16 -100 32 -90 15 9 9 86 -8 92 -7 3 -11 12 -8
19 3 8 2 14 -3 14 -5 0 -11 -16 -13 -35z"/>
<path d="M2000 825 c0 -9 64 -76 82 -86 11 -6 -2 12 -28 40 -47 50 -54 56 -54
46z"/>
<path d="M1479 813 c-1 -5 -1 -12 0 -17 1 -5 -3 -12 -9 -16 -9 -5 -8 -16 4
-38 22 -42 30 -45 60 -21 32 25 34 62 4 83 -24 17 -57 21 -59 9z"/>
<path d="M2164 704 c3 -9 6 -22 6 -30 0 -9 5 -12 10 -9 6 3 10 1 10 -5 0 -6 5
-8 10 -5 6 4 19 3 28 -1 14 -6 11 -8 -13 -13 -30 -7 -34 -18 -19 -61 5 -13 7
-12 18 3 13 16 17 16 81 -13 100 -45 168 -40 277 20 23 13 48 13 48 0 0 -5 5
-10 10 -10 21 0 9 30 -12 31 -22 0 -22 1 -3 8 11 5 32 5 47 0 25 -7 26 -6 17
18 -5 13 -9 38 -9 54 0 22 -4 28 -12 22 -7 -4 -20 -8 -28 -10 -8 -1 -20 -9
-26 -17 -6 -9 -17 -16 -25 -16 -8 -1 -39 -9 -69 -20 -63 -22 -136 -25 -177 -8
-15 6 -31 12 -35 12 -3 1 -10 4 -14 9 -4 4 -17 7 -30 7 -12 0 -24 6 -27 14 -3
7 -20 18 -37 25 -28 9 -31 9 -26 -5z"/>
<path d="M1480 680 c0 -5 5 -10 10 -10 6 0 10 5 10 10 0 6 -4 10 -10 10 -5 0
-10 -4 -10 -10z"/>
<path d="M2923 645 c4 -8 2 -17 -4 -20 -5 -4 -9 -3 -8 2 4 22 -2 25 -16 7 -24
-31 -18 -51 15 -56 16 -3 28 -2 25 0 -2 3 0 14 6 25 8 14 8 18 0 13 -6 -4 -11
-3 -11 3 0 5 5 13 10 16 12 7 4 25 -12 25 -5 0 -8 -7 -5 -15z"/>
<path d="M2140 610 c0 -5 5 -10 11 -10 5 0 7 5 4 10 -3 6 -8 10 -11 10 -2 0
-4 -4 -4 -10z"/>
<path d="M2656 519 c-15 -12 -25 -23 -22 -26 5 -6 63 24 71 37 11 18 -22 11
-49 -11z"/>
<path d="M2046 504 c-9 -24 -7 -90 4 -119 12 -32 93 -130 97 -118 2 5 -13 45
-32 88 -20 43 -38 97 -42 121 -6 45 -16 56 -27 28z"/>
<path d="M2192 457 c16 -16 118 -37 118 -24 0 3 -21 10 -48 16 -26 5 -56 13
-67 17 -19 7 -19 7 -3 -9z"/>
<path d="M1850 349 c0 -17 -7 -37 -15 -46 -13 -12 -15 -30 -10 -87 8 -84 13
-103 24 -90 13 14 24 254 12 254 -6 0 -11 -14 -11 -31z"/>
<path d="M2974 334 c4 -9 11 -57 16 -107 5 -49 11 -91 13 -94 8 -7 1 192 -6
205 -12 18 -30 15 -23 -4z"/>
<path d="M2745 173 c-63 -13 -120 -37 -142 -59 -14 -14 -32 -23 -40 -20 -8 3
-11 1 -8 -4 3 -6 16 -10 29 -10 28 0 149 39 156 50 7 12 91 -5 100 -20 6 -9
13 -7 29 6 28 24 27 31 -9 49 -28 14 -72 18 -115 8z"/>
<path d="M2500 70 c-11 -11 -22 -20 -25 -20 -13 1 -65 -32 -65 -40 0 -18 62
-11 96 11 28 17 32 24 24 39 -7 13 -6 20 3 23 9 4 9 6 0 6 -7 1 -22 -8 -33
-19z"/>
<path d="M1573 62 c-6 -4 -15 -20 -18 -35 -7 -25 -5 -27 24 -27 17 0 31 5 31
10 0 14 47 12 54 -2 5 -10 7 -10 12 0 3 6 10 10 15 6 12 -7 11 0 -3 31 -12 27
-27 32 -46 13 -10 -10 -17 -10 -32 0 -23 14 -22 14 -37 4z"/>
</g>
</svg>
